<?xml version="1.0" encoding="UTF-8"?>
<svg width="21px" height="24px" viewBox="0 0 21 24" version="1.1" xmlns="http://www.w3.org/2000/svg" xmlns:xlink="http://www.w3.org/1999/xlink">
    <!-- Generator: Sketch 46.2 (44496) - http://www.bohemiancoding.com/sketch -->
    <title>Untitled-1-06 Copy</title>
    <desc>Created with Sketch.</desc>
    <defs></defs>
    <g id="M-prototype" stroke="none" stroke-width="1" fill="none" fill-rule="evenodd">
        <g id="M-shirt-28" transform="translate(-22.000000, -608.000000)">
            <g id="Group-25">
                <g id="Group-24">
                    <g id="Group-21" transform="translate(20.000000, 608.000000)">
                        <g id="Untitled-1-06-Copy">
                            <g id="Layer_1">
                                <polyline id="_Path_" stroke="#0F3254" stroke-linecap="round" stroke-linejoin="round" points="14.37 18.85 8.04 18.85 8.04 13.17 22.23 13.17 22.23 18.85 14.37 18.85"></polyline>
                                <path d="M13.72,16.72 L13.72,18.85" id="_Path_2" stroke="#0F3254" stroke-linecap="round" stroke-linejoin="round"></path>
                                <path d="M10.88,16.72 L10.88,18.85" id="_Path_3" stroke="#0F3254" stroke-linecap="round" stroke-linejoin="round"></path>
                                <path d="M8.04,16.72 L8.04,18.85" id="_Path_4" stroke="#0F3254" stroke-linecap="round" stroke-linejoin="round"></path>
                                <path d="M22.23,16.72 L22.23,18.85" id="_Path_5" stroke="#0F3254" stroke-linecap="round" stroke-linejoin="round"></path>
                                <path d="M16.56,16.72 L16.56,18.85" id="_Path_6" stroke="#0F3254" stroke-linecap="round" stroke-linejoin="round"></path>
                                <path d="M19.39,16.72 L19.39,18.85" id="_Path_7" stroke="#0F3254" stroke-linecap="round" stroke-linejoin="round"></path>
                                <path d="M14.52,19.1 L13.52,22.64 L6.64,22.64 L3.37,11.11 C3.34166012,10.7243851 3.47758762,10.3447497 3.74424615,10.0647582 C4.01090468,9.78476678 4.38346203,9.63049312 4.77,9.64 L15.38,9.64 C15.7753924,9.62850763 16.1561967,9.78973011 16.4231379,10.081637 C16.6900791,10.3735439 16.8167034,10.7672074 16.77,11.16 L16.26,13" id="Shape" stroke="#0F3254" stroke-linecap="round" stroke-linejoin="round"></path>
                                <ellipse id="Oval" stroke="#0F3254" stroke-linecap="round" stroke-linejoin="round" cx="10.08" cy="4.43" rx="2.63" ry="3.07"></ellipse>
                                <rect id="Rectangle-path" x="0" y="0" width="24" height="24"></rect>
                            </g>
                        </g>
                    </g>
                </g>
            </g>
        </g>
    </g>
</svg>