<?xml version="1.0" encoding="UTF-8"?>
<svg width="24px" height="11px" viewBox="0 0 24 11" version="1.1" xmlns="http://www.w3.org/2000/svg" xmlns:xlink="http://www.w3.org/1999/xlink">
    <!-- Generator: Sketch 46.2 (44496) - http://www.bohemiancoding.com/sketch -->
    <title>ruler-1</title>
    <desc>Created with Sketch.</desc>
    <defs></defs>
    <g id="M-prototype" stroke="none" stroke-width="1" fill="none" fill-rule="evenodd">
        <g id="M-shirt-28" transform="translate(-20.000000, -676.000000)" fill="#183051">
            <g id="Group-25">
                <g id="Group-24">
                    <g id="Group-22" transform="translate(20.000000, 669.000000)">
                        <g id="ruler-1" transform="translate(0.000000, 7.000000)">
                            <g id="Layer_1">
                                <path d="M23.484375,0 L0.515625,0 C0.23203125,0 0,0.2296875 0,0.515625 L0,6.2578125 L0,9.703125 C0,9.98671875 0.2296875,10.21875 0.515625,10.21875 L23.484375,10.21875 C23.7679688,10.21875 24,9.9890625 24,9.703125 L24,0.515625 C24,0.2296875 23.7703125,0 23.484375,0 Z M22.96875,9.1875 L19.9195312,9.1875 L19.9195312,6.2578125 C19.9195312,5.97421875 19.6898437,5.7421875 19.4039063,5.7421875 C19.1179687,5.7421875 18.8882812,5.971875 18.8882812,6.2578125 L18.8882812,9.1875 L14.9625,9.1875 L14.9625,6.2578125 C14.9625,5.97421875 14.7328125,5.7421875 14.446875,5.7421875 C14.1632812,5.7421875 13.93125,5.971875 13.93125,6.2578125 L13.93125,9.1875 L10.0078125,9.1875 L10.0078125,6.2578125 C10.0078125,5.97421875 9.778125,5.7421875 9.4921875,5.7421875 C9.20859375,5.7421875 8.9765625,5.971875 8.9765625,6.2578125 L8.9765625,9.1875 L5.05078125,9.1875 L5.05078125,6.2578125 C5.05078125,5.97421875 4.82109375,5.7421875 4.53515625,5.7421875 C4.2515625,5.7421875 4.01953125,5.971875 4.01953125,6.2578125 L4.01953125,9.1875 L1.03125,9.1875 L1.03125,6.2578125 L1.03125,1.03125 L22.96875,1.03125 L22.96875,9.1875 Z" id="Shape"></path>
                            </g>
                        </g>
                    </g>
                </g>
            </g>
        </g>
    </g>
</svg>